<svg width="44" height="44" viewBox="0 0 44 44" fill="none" xmlns="http://www.w3.org/2000/svg">
<g clip-path="url(#clip0_184_4828)">
<path d="M43.0339 22C43.0339 33.8835 33.4005 43.517 21.517 43.517C9.63345 43.517 0 33.8835 0 22C0 10.1165 9.63345 0.483032 21.517 0.483032C33.4005 0.483032 43.0339 10.1165 43.0339 22Z" fill="#FDB44C"/>
<path d="M22.7465 9.61674C22.7465 10.3443 22.1567 10.9341 21.4291 10.9341H8.25547C7.52793 10.9341 6.9381 10.3443 6.9381 9.61674C6.9381 8.8892 7.52793 8.29937 8.25547 8.29937H21.4291C22.1567 8.29937 22.7465 8.8892 22.7465 9.61674ZM14.8423 5.22552C14.8423 4.49798 14.2525 3.90815 13.5249 3.90815H9.86459C8.67316 4.67706 7.56262 5.56057 6.54834 6.54288H13.5249C14.2525 6.54288 14.8423 5.95306 14.8423 5.22552ZM21.7688 0.484497C21.7382 0.595858 21.7218 0.713192 21.7218 0.834301C21.7218 1.56184 22.3117 2.15167 23.0392 2.15167H29.1869C29.3474 2.15167 29.5011 2.12295 29.6432 2.07043C27.2093 1.07696 24.5526 0.516377 21.7688 0.484497Z" fill="#FDD194"/>
<path d="M38.5549 20.1557C38.5549 28.6439 31.6739 35.525 23.1857 35.525C14.6974 35.525 7.81641 28.6439 7.81641 20.1557C7.81641 11.6675 14.6974 4.78644 23.1857 4.78644C31.6739 4.78644 38.5549 11.6675 38.5549 20.1557Z" fill="#FFDF8E"/>
<path d="M33.2854 18.3992C33.2854 23.4921 29.1568 27.6207 24.0638 27.6207C18.9709 27.6207 14.8423 23.4921 14.8423 18.3992C14.8423 13.3062 18.9709 9.17761 24.0638 9.17761C29.1568 9.17761 33.2854 13.3062 33.2854 18.3992Z" fill="#FFF2B4"/>
<path d="M33.2855 18.3992C33.2855 22.8915 30.0732 26.6335 25.8204 27.4536C21.5676 26.6334 18.3553 22.8915 18.3553 18.3992C18.3553 13.9069 21.5676 10.1649 25.8204 9.34479C30.0732 10.1649 33.2855 13.9069 33.2855 18.3992Z" fill="#FFF5F5"/>
<path d="M30.2115 6.54291H36.4855C37.3253 7.35625 38.099 8.23748 38.7978 9.17764H30.2115C29.484 9.17764 28.8942 8.58781 28.8942 7.86027C28.8942 7.13274 29.484 6.54291 30.2115 6.54291ZM37.2375 11.8124H28.4551C27.7275 11.8124 27.1377 12.4022 27.1377 13.1297C27.1377 13.8573 27.7275 14.4471 28.4551 14.4471H37.2375C37.965 14.4471 38.5549 13.8573 38.5549 13.1297C38.5549 12.4022 37.965 11.8124 37.2375 11.8124Z" fill="#FFE899"/>
<path d="M0 22C0 19.3061 0.495066 16.728 1.39904 14.3514L3.65876 13.1759C4.37163 12.8051 5.13087 12.5648 5.90338 12.4541C7.49273 12.2263 8.49332 13.5883 9.90597 14.4471C9.90597 14.4471 18.2382 18.7899 22.7484 20.1054L26.3582 19.9284L29.2926 18.2698C32.653 16.3704 36.8335 16.7222 39.8292 19.1562L43.0325 21.759C43.0331 21.8038 33.9061 31.3854 23.6247 35.5249C15.5205 38.7879 6.03388 37.2155 4.30348 34.9124C1.6013 31.3158 0 26.8449 0 22H0Z" fill="#A19A13"/>
<path d="M8.77761 25.638C6.50577 23.0625 5.18165 19.9693 5.18165 16.6427C5.18165 15.1944 5.43265 13.7904 5.90348 12.4541C7.49283 12.2263 9.13831 12.5465 10.551 13.4052C14.5654 15.8457 18.8832 17.7481 23.3933 19.0635L26.3583 19.9283L21.6396 22.5954C17.6759 24.8358 13.2103 25.8591 8.77761 25.638ZM43.0339 22C43.0339 21.9196 43.0335 21.8392 43.0326 21.7589L39.8292 19.1562C38.3956 17.9914 36.6906 17.3035 34.934 17.1109C34.9239 17.1215 34.9138 17.1322 34.9037 17.1428L27.1728 25.3283C21.2068 31.6452 12.8557 35.0765 4.25159 34.843C8.17391 40.1074 14.4473 43.517 21.517 43.517C33.4005 43.517 43.0339 33.8835 43.0339 22Z" fill="#D6BF01"/>
<path d="M11.6956 25.604C11.6755 25.4816 11.6649 25.3559 11.6649 25.2279C11.6649 23.9585 12.694 22.9294 13.9634 22.9294C14.1208 22.9294 14.2746 22.9452 14.4232 22.9755C14.4365 21.1734 15.9014 19.7166 17.7065 19.7166C19.5031 19.7166 20.9626 21.1594 20.9896 22.9495C18.0727 24.4805 14.9064 25.3688 11.6956 25.604Z" fill="#517D10"/>
<path d="M44 23.324C44 25.7492 42.034 27.7152 39.6088 27.7152C38.8623 27.7152 38.1593 27.5289 37.5437 27.2002C37.1599 28.4603 35.9884 29.3772 34.6028 29.3772C32.9052 29.3772 31.529 28.001 31.529 26.3034C31.529 24.6057 32.9052 23.2295 34.6028 23.2295C34.8134 23.2295 35.0191 23.2507 35.2178 23.2911C35.2355 20.881 37.1945 18.9328 39.6088 18.9328C42.034 18.9328 44 20.8987 44 23.324ZM9.89038 28.3039C9.3139 28.2394 8.78274 28.4387 8.40229 28.7964C8.01164 28.0999 7.26883 27.6276 6.415 27.6207C5.15814 27.6106 4.10733 28.6445 4.09784 29.9014C4.09714 29.9981 4.10241 30.0936 4.1133 30.1873C4.17618 30.7286 4.64103 31.1336 5.18598 31.1336H10.4489C11.0817 31.1336 11.588 30.5914 11.5258 29.9617C11.525 29.9536 11.5241 29.9454 11.5232 29.9373C11.4281 29.086 10.7417 28.3993 9.89038 28.3039Z" fill="#31662B"/>
<path d="M37.8477 26.1293C38.7968 25.9125 39.7672 25.9125 40.7163 26.1293C41.3319 26.2699 41.941 26.4239 42.543 26.5908C40.4398 36.2686 31.8249 43.5169 21.5169 43.5169C19.1368 43.5169 16.8469 43.1305 14.7067 42.4169C19.1952 34.4949 27.6213 28.4646 37.8477 26.1293Z" fill="#46853E"/>
<path d="M38.5549 31.1337C38.0505 31.1337 37.6454 30.7086 37.6786 30.197C37.7088 29.7302 38.1173 29.3772 38.585 29.3772H41.736C42.0652 28.4751 42.3358 27.5448 42.5432 26.5908C41.9411 26.4239 41.3322 26.2699 40.7166 26.1293C39.7664 25.9123 38.7948 25.9129 37.8445 26.13C37.1306 26.2931 33.7202 28.411 31.4289 30.3608C31.1181 30.6252 31.3065 31.1337 31.7145 31.1337H34.1337C34.6014 31.1337 35.0099 31.4867 35.0401 31.9535C35.0732 32.465 34.6682 32.8902 34.1638 32.8902H29.8092C29.3714 32.8902 28.9611 33.1078 28.7166 33.471C27.4125 35.4083 26.7591 37.0084 26.5441 38.5381C26.507 38.8022 26.7129 39.0379 26.9797 39.0379H27.986C28.4538 39.0379 28.8623 39.3909 28.8925 39.8577C28.9256 40.3691 28.5205 40.7944 28.0162 40.7944H27.023C26.7521 40.7944 26.5482 41.0369 26.5896 41.3046C26.6667 41.8023 26.776 42.3096 26.9104 42.8354C33.1618 41.2219 38.3121 36.8692 41.0049 31.1337H38.5549ZM34.1637 37.2814H31.529C31.0439 37.2814 30.6507 36.8882 30.6507 36.4032C30.6507 35.9181 31.0439 35.5249 31.529 35.5249H34.1637C34.6487 35.5249 35.0419 35.9181 35.0419 36.4032C35.0419 36.8882 34.6487 37.2814 34.1637 37.2814Z" fill="#6EA219"/>
</g>
<defs>
<clipPath id="clip0_184_4828">
<rect width="44" height="44" fill="white"/>
</clipPath>
</defs>
</svg>
